<svg height="12.144022mm" viewBox="0 0 252.88238 43.029999" width="71.369026mm" xmlns="http://www.w3.org/2000/svg" xmlns:xlink="http://www.w3.org/1999/xlink"><clipPath id="a"><path d="m284.717 426.068h202.306v34.424h-202.306z"/></clipPath><g transform="translate(-256.41596 -125.13292)"><path d="m284.95971 125.13292-28.54375 14.3425 22.83375 11.475 5.71-2.86875-17.12625-8.60625 17.11125-8.59875 17.14 8.59875-5.70875 2.86875v11.475l-11.41625 5.7375-17.12625-8.60625v17.2125l2.82875-1.43375 2.885 1.43375-.005-8.60625 11.4175 5.7375 17.125-8.60625v-11.475l11.4175-5.7375z" fill="#3abda4"/><g clip-path="url(#a)" fill="#2d3b40" transform="matrix(1.25 0 0 -1.25 -99.479795 700.74817)"><path d="m347.7993 441.1857.972-3.027c-.773-.53-1.944-1.038-3.402-1.038-3.69 0-6.297 2.519-6.297 6.076s2.695 6.098 6.275 6.098c1.502 0 2.629-.487 3.446-1.06l-.994-3.116c-.641.53-1.458.861-2.32.861-1.745 0-2.717-1.215-2.717-2.761 0-1.701 1.149-2.85 2.849-2.85.862 0 1.68.398 2.188.817"/><path d="m355.9736 440.3685c1.524 0 2.673 1.193 2.673 2.85 0 1.701-1.171 2.828-2.673 2.828-1.524 0-2.607-1.171-2.607-2.872 0-1.679 1.105-2.806 2.607-2.806m0 8.926c3.734 0 6.363-2.563 6.363-6.076 0-3.491-2.695-6.098-6.363-6.098-3.69 0-6.297 2.563-6.297 6.054 0 3.513 2.718 6.12 6.297 6.12"/><path d="m364.249 453.382h3.69v-15.974h-3.69z"/><path d="m370.447 453.382h3.69v-15.974h-3.69z"/><path d="m379.994 444.5886h3.756c-.044.928-.729 1.724-1.878 1.724-1.215 0-1.79-.906-1.878-1.724m-.11-2.342c.088-1.039 1.082-1.923 2.452-1.923 1.392 0 2.21.906 2.43 1.238l2.431-1.878c-.331-.685-1.922-2.563-4.927-2.563-3.822 0-6.164 2.629-6.164 6.053 0 3.403 2.297 6.121 5.7 6.121 3.69 0 5.7-2.364 5.7-6.319 0-.221 0-.464-.022-.729z"/><path d="m395.4841 446.0468c-1.48 0-2.474-1.083-2.474-2.806 0-1.701.994-2.872 2.496-2.872 1.458 0 2.497 1.038 2.497 2.872 0 1.547-.928 2.806-2.519 2.806m2.408-7.756c-.243-.286-1.325-1.17-3.093-1.17-3.358 0-5.479 2.496-5.479 6.098 0 3.557 2.342 6.076 5.678 6.076 1.701 0 2.806-.818 3.137-1.193v.905h3.447v-10.207c0-4.287-2.983-5.634-6.429-5.634-1.635 0-3.248.464-4.287.994l1.083 2.828c.331-.154 1.635-.707 3.204-.707 1.37 0 2.739.309 2.739 1.724z"/><path d="m407.395 444.5886h3.756c-.044.928-.729 1.724-1.878 1.724-1.215 0-1.79-.906-1.878-1.724m-.11-2.342c.088-1.039 1.082-1.923 2.452-1.923 1.392 0 2.21.906 2.43 1.238l2.431-1.878c-.331-.685-1.922-2.563-4.927-2.563-3.822 0-6.164 2.629-6.164 6.053 0 3.403 2.297 6.121 5.7 6.121 3.69 0 5.7-2.364 5.7-6.319 0-.221 0-.464-.022-.729z"/><path d="m423.359 440.346c1.48 0 2.497 1.105 2.497 2.828 0 1.702-.995 2.873-2.497 2.873-1.458 0-2.497-1.039-2.497-2.873 0-1.546.906-2.828 2.497-2.828m-2.629-2.938h-3.447v15.974h3.69v-5.258c.243.287 1.325 1.171 3.093 1.171 3.358 0 5.479-2.497 5.479-6.098 0-3.558-2.342-6.076-5.678-6.076-1.701 0-2.806.817-3.137 1.192z"/><path d="m436.35 439.9487c.884 0 1.546.42 1.546 1.193 0 .795-.684 1.237-1.568 1.237s-1.547-.486-1.547-1.237c0-.773.707-1.193 1.569-1.193m-.751 4.905c1.016 0 1.812-.243 2.231-.42v.42c0 .707-.574 1.259-1.767 1.259-1.016 0-2.011-.287-2.917-.728l-1.37 2.473c1.238.818 2.806 1.437 4.729 1.437 3.999 0 5.015-2.055 5.015-4.706v-7.181h-3.292l-.199.641c-.596-.597-1.436-.928-2.629-.928-2.276 0-4.308 1.37-4.308 3.889 0 2.32 1.767 3.844 4.507 3.844"/><path d="m451.9261 441.1857.972-3.027c-.773-.53-1.944-1.038-3.402-1.038-3.69 0-6.297 2.519-6.297 6.076s2.695 6.098 6.275 6.098c1.502 0 2.629-.487 3.446-1.06l-.994-3.116c-.641.53-1.458.861-2.32.861-1.745 0-2.717-1.215-2.717-2.761 0-1.701 1.149-2.85 2.849-2.85.862 0 1.68.398 2.188.817"/><path d="m461.9909 443.7047 4.043-6.297h-4.33l-3.248 5.413v-5.413h-3.69v15.974h3.69v-9.036l3.137 4.661h4.132z"/><path d="m470.5407 444.5886h3.756c-.044.928-.729 1.724-1.878 1.724-1.215 0-1.79-.906-1.878-1.724m-.11-2.342c.088-1.039 1.082-1.923 2.452-1.923 1.392 0 2.21.906 2.43 1.238l2.431-1.878c-.332-.685-1.922-2.563-4.927-2.563-3.822 0-6.164 2.629-6.164 6.053 0 3.403 2.297 6.121 5.7 6.121 3.69 0 5.7-2.364 5.7-6.319 0-.221 0-.464-.022-.729z"/><path d="m487.0225 445.5386c-.155.022-.331.044-.597.044-1.789 0-2.386-1.303-2.386-3.049v-5.126h-3.69v11.6h3.602v-1.547c.552 1.127 1.635 1.834 3.071 1.834z"/></g></g></svg>